<svg width="142" height="33" viewBox="0 0 142 33" fill="none" xmlns="http://www.w3.org/2000/svg">
<g clip-path="url(#clip0_457_54223)">
<path d="M128.416 11.8704H129.19L129.462 11.1168H128.416V10.4227H129.717L129.989 9.6691H127.349V13.1137H128.416V11.8704Z" fill="black"/>
<path d="M131.388 9.6691H130.317V13.1137H131.388V9.6691Z" fill="black"/>
<path d="M133.195 11.8704H133.965L134.237 11.1168H133.195V10.4227H134.492L134.764 9.6691H132.124V13.1137H133.195V11.8704Z" fill="black"/>
<path d="M135.266 13.1137L135.398 12.6539H136.61L136.75 13.1137H137.83L136.576 9.6691H135.466L134.211 13.1137H135.266ZM136.006 10.559L136.431 11.9939H135.581L136.006 10.559Z" fill="black"/>
<path d="M137.456 10.5505C137.502 10.5973 137.557 10.6349 137.617 10.6612C137.682 10.6903 137.751 10.7049 137.822 10.7038C137.89 10.7045 137.959 10.69 138.021 10.6612C138.143 10.6076 138.24 10.5104 138.294 10.3887C138.323 10.3261 138.337 10.2576 138.336 10.1886C138.337 10.1181 138.323 10.0483 138.294 9.98419C138.267 9.92372 138.23 9.86881 138.183 9.82239C138.137 9.77468 138.082 9.73698 138.021 9.71168C137.958 9.68365 137.889 9.66918 137.819 9.66918C137.75 9.66918 137.681 9.68365 137.617 9.71168C137.496 9.76529 137.399 9.8625 137.345 9.98419C137.316 10.0483 137.302 10.1181 137.303 10.1886C137.302 10.2576 137.316 10.3261 137.345 10.3887C137.371 10.4497 137.408 10.5048 137.456 10.5505V10.5505ZM137.456 10.0225C137.475 9.9721 137.504 9.92586 137.541 9.88626C137.577 9.85079 137.618 9.82195 137.664 9.8011C137.713 9.78026 137.765 9.77009 137.817 9.77129C137.868 9.77044 137.919 9.7806 137.966 9.8011C138.013 9.82087 138.054 9.84984 138.089 9.88626C138.126 9.92586 138.155 9.9721 138.174 10.0225C138.214 10.1296 138.214 10.2475 138.174 10.3546C138.155 10.4039 138.126 10.4488 138.089 10.4866C138.056 10.5244 138.013 10.5536 137.966 10.5718C137.919 10.5936 137.869 10.6052 137.817 10.6058C137.764 10.6057 137.712 10.5941 137.664 10.5718C137.618 10.5524 137.576 10.5234 137.541 10.4866C137.504 10.4488 137.475 10.4039 137.456 10.3546C137.416 10.2475 137.416 10.1296 137.456 10.0225V10.0225Z" fill="black"/>
<path d="M137.728 10.2269H137.796L137.949 10.4781H138.06L137.902 10.2226C137.943 10.2202 137.983 10.2037 138.013 10.1758C138.028 10.1621 138.04 10.145 138.048 10.1257C138.055 10.1064 138.058 10.0856 138.055 10.0651C138.058 10.0402 138.054 10.0152 138.044 9.99222C138.034 9.96922 138.019 9.94892 138 9.93308C137.952 9.90279 137.895 9.88794 137.839 9.8905H137.622V10.4781H137.728V10.2269ZM137.728 9.97566H137.868H137.907L137.936 10.0012C137.939 10.0153 137.939 10.0297 137.936 10.0438C137.939 10.0593 137.939 10.0751 137.936 10.0906L137.911 10.1162H137.873H137.728V9.97566Z" fill="black"/>
<path d="M128.484 19.2153C128.537 19.2693 128.601 19.3114 128.671 19.3388C128.755 19.3675 128.842 19.3819 128.931 19.3814C129.019 19.3815 129.106 19.3671 129.19 19.3388C129.26 19.3104 129.323 19.2684 129.377 19.2153C129.429 19.1592 129.468 19.0923 129.492 19.0195C129.518 18.9354 129.531 18.8478 129.53 18.7597C129.531 18.6717 129.519 18.5839 129.492 18.5C129.469 18.4272 129.43 18.3605 129.378 18.3052C129.326 18.2498 129.261 18.2072 129.19 18.1807C129.106 18.1524 129.019 18.138 128.931 18.1381C128.842 18.1376 128.755 18.152 128.671 18.1807C128.6 18.207 128.536 18.2493 128.484 18.3041C128.432 18.3603 128.393 18.4271 128.369 18.5C128.343 18.5839 128.33 18.6717 128.331 18.7597C128.33 18.8478 128.343 18.9354 128.369 19.0195C128.393 19.0923 128.432 19.1592 128.484 19.2153V19.2153ZM128.675 18.615C128.683 18.5712 128.699 18.5293 128.722 18.4915C128.744 18.4571 128.773 18.428 128.807 18.4063C128.845 18.3869 128.888 18.3767 128.931 18.3767C128.973 18.3767 129.016 18.3869 129.054 18.4063C129.088 18.428 129.117 18.4571 129.139 18.4915C129.162 18.5293 129.178 18.5712 129.186 18.615C129.19 18.6631 129.19 18.7116 129.186 18.7597C129.19 18.8079 129.19 18.8563 129.186 18.9045C129.177 18.948 129.161 18.9898 129.139 19.028C129.117 19.0624 129.088 19.0915 129.054 19.1131C129.016 19.1326 128.973 19.1427 128.931 19.1427C128.888 19.1427 128.845 19.1326 128.807 19.1131C128.773 19.0915 128.744 19.0624 128.722 19.028C128.7 18.9898 128.684 18.948 128.675 18.9045C128.669 18.8565 128.669 18.8078 128.675 18.7597C128.669 18.7117 128.669 18.663 128.675 18.615V18.615Z" fill="black"/>
<path d="M130.104 18.8747H130.567V18.649H130.104V18.3893H130.589V18.1594H129.785V19.3601H130.104V18.8747Z" fill="black"/>
<path d="M131.146 18.8747H131.609V18.649H131.146V18.3893H131.626V18.1594H130.827V19.3601H131.146V18.8747Z" fill="black"/>
<path d="M132.209 18.1594H131.89V19.3601H132.209V18.1594Z" fill="black"/>
<path d="M132.715 19.2409C132.78 19.2915 132.855 19.3277 132.936 19.3473C133.015 19.3691 133.096 19.3805 133.178 19.3814C133.246 19.3888 133.314 19.3888 133.382 19.3814L133.531 19.3473V19.1004C133.484 19.1177 133.436 19.1319 133.386 19.143C133.336 19.1492 133.284 19.1492 133.233 19.143C133.178 19.1438 133.124 19.1352 133.072 19.1174C133.024 19.1023 132.98 19.076 132.944 19.0408C132.908 19.0082 132.88 18.9673 132.863 18.9215C132.841 18.8722 132.829 18.8184 132.829 18.764C132.83 18.7115 132.84 18.6595 132.859 18.6107C132.875 18.5645 132.902 18.5223 132.936 18.4872C132.967 18.451 133.006 18.4231 133.051 18.4063C133.099 18.3855 133.151 18.3753 133.204 18.3765C133.257 18.37 133.312 18.37 133.365 18.3765C133.419 18.3905 133.471 18.412 133.518 18.4404L133.544 18.1807C133.487 18.1625 133.428 18.1482 133.369 18.1381C133.309 18.1315 133.247 18.1315 133.187 18.1381C133.095 18.1374 133.003 18.1503 132.915 18.1764C132.835 18.2005 132.761 18.2411 132.698 18.2956C132.633 18.3474 132.584 18.4149 132.553 18.4915C132.517 18.5778 132.5 18.6706 132.502 18.764C132.499 18.8643 132.521 18.9638 132.566 19.0535C132.601 19.1265 132.651 19.1906 132.715 19.2409V19.2409Z" fill="black"/>
<path d="M134.101 18.1594H133.782V19.3601H134.101V18.1594Z" fill="black"/>
<path d="M134.743 19.1046H135.194L135.283 19.3601H135.632L135.173 18.1594H134.781L134.326 19.3601H134.65L134.743 19.1046ZM134.973 18.4063L135.113 18.8747H134.815L134.973 18.4063Z" fill="black"/>
<path d="M136.657 19.1217H136.163V18.1594H135.844V19.3601H136.657V19.1217Z" fill="black"/>
<path d="M129.143 21.1569H128.65V20.1946H128.331V21.3954H129.143V21.1569Z" fill="black"/>
<path d="M129.704 20.1946H129.385V21.3954H129.704V20.1946Z" fill="black"/>
<path d="M130.181 20.3309C130.116 20.3827 130.067 20.4501 130.036 20.5268C130 20.6131 129.983 20.7059 129.985 20.7993C129.983 20.899 130.003 20.998 130.044 21.0888C130.084 21.1622 130.139 21.2261 130.206 21.2762C130.273 21.3267 130.35 21.363 130.431 21.3826C130.513 21.4127 130.599 21.4313 130.686 21.438C130.754 21.4433 130.823 21.4433 130.891 21.438L131.039 21.4039V21.1527C130.993 21.1727 130.944 21.1884 130.895 21.1995C130.843 21.206 130.79 21.206 130.738 21.1995C130.683 21.1997 130.628 21.1911 130.576 21.174C130.53 21.1577 130.488 21.1316 130.453 21.0973C130.415 21.065 130.386 21.0241 130.368 20.9781C130.348 20.9278 130.338 20.8744 130.338 20.8206C130.337 20.7683 130.346 20.7164 130.363 20.6673C130.383 20.6226 130.409 20.5811 130.44 20.5438C130.473 20.5083 130.514 20.4807 130.559 20.4629C130.607 20.442 130.659 20.4319 130.712 20.4331C130.766 20.4266 130.82 20.4266 130.874 20.4331C130.927 20.447 130.979 20.4685 131.027 20.497L131.052 20.2372C130.995 20.2195 130.937 20.2053 130.878 20.1946C130.817 20.1881 130.756 20.1881 130.695 20.1946C130.603 20.1939 130.511 20.2068 130.423 20.233C130.336 20.2472 130.253 20.2807 130.181 20.3309V20.3309Z" fill="black"/>
<path d="M131.571 20.8972H132.064V20.6715H131.571V20.4203H132.094V20.1946H131.252V21.3954H132.115V21.1697H131.571V20.8972Z" fill="black"/>
<path d="M132.681 20.5736H132.685L133.106 21.3954H133.501V20.1946H133.208L133.212 21.0079L132.804 20.1946H132.4V21.3954H132.693L132.681 20.5736Z" fill="black"/>
<path d="M133.927 20.8205C133.968 20.8483 134.014 20.8684 134.063 20.8802L134.199 20.927C134.235 20.9375 134.269 20.9533 134.301 20.9738C134.315 20.9839 134.326 20.9974 134.333 21.013C134.341 21.0287 134.344 21.046 134.343 21.0632C134.35 21.0811 134.35 21.1008 134.343 21.1186C134.333 21.1355 134.319 21.1489 134.301 21.1569H134.237H134.165C134.104 21.1639 134.043 21.1639 133.982 21.1569C133.93 21.143 133.88 21.123 133.833 21.0973L133.807 21.3656C133.866 21.3837 133.925 21.3965 133.986 21.4039H134.165C134.23 21.4031 134.296 21.396 134.36 21.3826C134.419 21.3745 134.476 21.3542 134.526 21.323C134.576 21.293 134.617 21.2504 134.645 21.1995C134.678 21.141 134.694 21.0748 134.692 21.0079C134.696 20.9467 134.681 20.8859 134.649 20.8333C134.622 20.7921 134.585 20.7572 134.543 20.7311C134.501 20.7031 134.455 20.6815 134.407 20.6673L134.271 20.6289C134.234 20.6189 134.198 20.6046 134.165 20.5864C134.152 20.5781 134.142 20.5667 134.135 20.5532C134.128 20.5397 134.125 20.5247 134.126 20.5097C134.125 20.4988 134.126 20.4877 134.13 20.4773C134.133 20.4669 134.14 20.4576 134.148 20.4501C134.163 20.434 134.182 20.4223 134.203 20.416C134.225 20.4116 134.248 20.4116 134.271 20.416H134.339C134.384 20.4117 134.43 20.4117 134.475 20.416C134.521 20.4237 134.565 20.4381 134.607 20.4586V20.2117C134.561 20.1963 134.514 20.185 134.467 20.1776C134.411 20.1731 134.356 20.1731 134.301 20.1776C134.24 20.1734 134.179 20.1734 134.118 20.1776C134.059 20.1897 134.002 20.2097 133.948 20.2372C133.898 20.2649 133.856 20.3043 133.824 20.3522C133.792 20.4061 133.776 20.4681 133.778 20.531C133.774 20.5922 133.789 20.6531 133.82 20.7056C133.846 20.7515 133.883 20.7908 133.927 20.8205V20.8205Z" fill="black"/>
<path d="M135.785 20.4203V20.1946H134.939V21.3954H135.802V21.1697H135.258V20.8972H135.755V20.6715H135.258V20.4203H135.785Z" fill="black"/>
<path d="M136.083 20.1946V21.3954H136.508C136.602 21.3956 136.697 21.3841 136.788 21.3613C136.87 21.3431 136.946 21.3083 137.014 21.2591C137.079 21.2108 137.13 21.1462 137.163 21.0718C137.199 20.9827 137.216 20.887 137.214 20.7907C137.217 20.6917 137.199 20.5932 137.163 20.5012C137.13 20.4291 137.081 20.3662 137.018 20.3181C136.951 20.2701 136.874 20.238 136.793 20.2244C136.699 20.2031 136.604 20.1931 136.508 20.1946H136.083ZM136.801 20.5225C136.865 20.599 136.9 20.6954 136.9 20.795C136.9 20.8946 136.865 20.991 136.801 21.0675C136.724 21.1321 136.625 21.1642 136.525 21.1569H136.401V20.4331H136.525C136.625 20.4263 136.724 20.4583 136.801 20.5225Z" fill="black"/>
<path d="M128.65 23.0091H128.773C128.898 23.0171 129.021 22.9809 129.122 22.9069C129.164 22.8735 129.197 22.8306 129.219 22.7817C129.241 22.7329 129.252 22.6795 129.249 22.6259C129.254 22.5692 129.244 22.5123 129.221 22.4603C129.198 22.4083 129.162 22.3628 129.118 22.3279C128.99 22.2502 128.841 22.2159 128.692 22.2299H128.314V23.4307H128.633L128.65 23.0091ZM128.65 22.4556H128.731H128.807C128.83 22.4589 128.852 22.4676 128.871 22.4811C128.89 22.494 128.904 22.5116 128.913 22.5322C128.918 22.5576 128.918 22.5836 128.913 22.6089C128.919 22.6356 128.919 22.6631 128.913 22.6898C128.904 22.7104 128.89 22.7281 128.871 22.7409C128.852 22.7544 128.83 22.7632 128.807 22.7664H128.731H128.65V22.4556Z" fill="black"/>
<path d="M130.329 23.0049C130.323 22.9781 130.313 22.9524 130.3 22.9282C130.29 22.9078 130.277 22.8891 130.261 22.8729C130.243 22.8566 130.221 22.8449 130.198 22.8388C130.267 22.828 130.329 22.7915 130.372 22.7366C130.411 22.6774 130.43 22.6074 130.427 22.5365C130.429 22.4907 130.419 22.4452 130.398 22.4045C130.379 22.3656 130.351 22.3319 130.317 22.3066C130.278 22.2831 130.237 22.2645 130.193 22.2512C130.142 22.2466 130.091 22.2466 130.04 22.2512H129.471V23.4519H129.794V22.9538H129.858C129.883 22.9489 129.909 22.9489 129.934 22.9538C129.957 22.9624 129.978 22.9771 129.994 22.9963C130.011 23.0197 130.026 23.0455 130.036 23.073C130.054 23.1145 130.07 23.1572 130.083 23.2007L130.151 23.4179H130.487L130.368 23.09C130.355 23.0645 130.342 23.0347 130.329 23.0049ZM130.087 22.6685C130.072 22.6863 130.053 22.7007 130.032 22.7111H129.955H129.794V22.4386H129.875H129.964C129.988 22.4337 130.012 22.4337 130.036 22.4386C130.058 22.4475 130.077 22.4622 130.091 22.4811C130.098 22.5019 130.098 22.5243 130.091 22.545C130.101 22.5644 130.105 22.5858 130.105 22.6073C130.104 22.6288 130.098 22.6498 130.087 22.6685V22.6685Z" fill="black"/>
<path d="M131.716 22.3747C131.662 22.3216 131.598 22.2797 131.529 22.2512C131.445 22.2229 131.357 22.2086 131.269 22.2086C131.181 22.2078 131.093 22.2222 131.01 22.2512C130.938 22.2785 130.873 22.3206 130.818 22.3747C130.768 22.432 130.729 22.4985 130.704 22.5706C130.677 22.6545 130.664 22.7422 130.665 22.8303C130.664 22.917 130.677 23.0032 130.704 23.0858C130.729 23.158 130.768 23.2246 130.818 23.2816C130.872 23.3383 130.937 23.3821 131.01 23.4094C131.177 23.4661 131.357 23.4661 131.524 23.4094C131.597 23.3821 131.662 23.3383 131.716 23.2816C131.769 23.2268 131.809 23.1595 131.83 23.0858C131.857 23.0032 131.87 22.917 131.869 22.8303C131.87 22.7422 131.857 22.6545 131.83 22.5706C131.807 22.4977 131.768 22.4309 131.716 22.3747V22.3747ZM131.537 22.9751C131.527 23.0188 131.51 23.0606 131.486 23.0985C131.467 23.1324 131.439 23.1604 131.405 23.1794C131.368 23.202 131.325 23.2138 131.282 23.2135C131.24 23.2131 131.2 23.2024 131.163 23.1823C131.127 23.1623 131.096 23.1335 131.074 23.0985C131.051 23.0603 131.035 23.0186 131.027 22.9751C131.02 22.927 131.02 22.8783 131.027 22.8303C131.02 22.7808 131.02 22.7307 131.027 22.6813C131.035 22.6391 131.051 22.5987 131.074 22.562C131.095 22.5277 131.124 22.4986 131.159 22.4769C131.196 22.4551 131.239 22.4447 131.282 22.4471C131.325 22.4452 131.368 22.4555 131.405 22.4769C131.438 22.4987 131.466 22.5278 131.486 22.562C131.51 22.5985 131.527 22.6388 131.537 22.6813C131.541 22.7308 131.541 22.7807 131.537 22.8303C131.541 22.8784 131.541 22.9269 131.537 22.9751Z" fill="black"/>
<path d="M133.08 22.3534C133.013 22.306 132.936 22.274 132.855 22.2597C132.762 22.2384 132.666 22.2284 132.57 22.2299H132.145V23.4307H132.57C132.665 23.4309 132.759 23.4194 132.851 23.3966C132.932 23.3784 133.009 23.3436 133.076 23.2944C133.14 23.2449 133.191 23.1806 133.225 23.1071C133.261 23.018 133.279 22.9223 133.276 22.826C133.279 22.727 133.262 22.6285 133.225 22.5365C133.193 22.4644 133.143 22.4015 133.08 22.3534ZM132.851 23.1028C132.773 23.167 132.675 23.199 132.574 23.1922H132.451V22.4684H132.574C132.674 22.4624 132.773 22.4943 132.851 22.5578C132.885 22.594 132.911 22.6369 132.928 22.6838C132.945 22.7307 132.952 22.7806 132.949 22.8303C132.952 22.88 132.944 22.9298 132.928 22.9766C132.911 23.0235 132.885 23.0664 132.851 23.1028V23.1028Z" fill="black"/>
<path d="M133.663 23.337C133.711 23.3773 133.768 23.4064 133.829 23.4221C133.899 23.4414 133.972 23.4514 134.046 23.4519C134.117 23.451 134.189 23.441 134.258 23.4221C134.319 23.4064 134.376 23.3773 134.424 23.337C134.47 23.2956 134.506 23.2448 134.53 23.188C134.557 23.1203 134.57 23.0479 134.569 22.9751V22.2299H134.25V22.9197C134.252 22.958 134.252 22.9964 134.25 23.0347C134.243 23.0673 134.231 23.0989 134.216 23.1283C134.203 23.154 134.182 23.1749 134.156 23.188C134.125 23.2053 134.09 23.2141 134.054 23.2135C134.018 23.2152 133.983 23.2063 133.952 23.188C133.926 23.174 133.904 23.1534 133.888 23.1283C133.874 23.0981 133.863 23.0668 133.854 23.0347C133.852 22.9964 133.852 22.958 133.854 22.9197V22.2299H133.535V22.9751C133.534 23.0479 133.547 23.1203 133.574 23.188C133.593 23.2432 133.623 23.294 133.663 23.337V23.337Z" fill="black"/>
<path d="M135.721 23.1965C135.669 23.2028 135.616 23.2028 135.564 23.1965C135.509 23.1974 135.454 23.1887 135.402 23.1709C135.354 23.1558 135.31 23.1295 135.275 23.0943C135.24 23.0606 135.212 23.02 135.194 22.9751C135.172 22.9254 135.162 22.8716 135.164 22.8175C135.163 22.7653 135.172 22.7133 135.189 22.6642C135.205 22.6175 135.231 22.5751 135.266 22.5408C135.298 22.5044 135.339 22.4767 135.385 22.4599C135.433 22.4382 135.486 22.428 135.538 22.4301C135.591 22.4306 135.644 22.4377 135.695 22.4513C135.749 22.4653 135.801 22.4868 135.849 22.5152L135.874 22.2555L135.7 22.2086C135.64 22.2045 135.581 22.2045 135.521 22.2086C135.428 22.2079 135.335 22.2208 135.245 22.247C135.166 22.2729 135.092 22.3133 135.028 22.3662C134.965 22.4192 134.915 22.4863 134.883 22.562C134.848 22.6484 134.83 22.7412 134.832 22.8346C134.829 22.9349 134.851 23.0344 134.896 23.1241C134.936 23.1975 134.991 23.2614 135.058 23.3114C135.123 23.362 135.198 23.3983 135.279 23.4179C135.358 23.4396 135.439 23.4511 135.521 23.4519C135.589 23.4573 135.657 23.4573 135.725 23.4519L135.878 23.4179V23.1667L135.721 23.1965Z" fill="black"/>
<path d="M136.019 22.4684H136.316V23.4306H136.635V22.4684H136.928V22.2299H136.019V22.4684Z" fill="black"/>
<path d="M125.159 6.8163V25.8406H140.356V6.8163H125.159ZM140.168 25.6959H125.286V16.4094H140.168V25.6959ZM140.168 16.2689H125.286V6.98235H140.168V16.2689Z" fill="black"/>
<path d="M16.3073 31.6569C24.7612 31.6569 31.6145 24.7941 31.6145 16.3285C31.6145 7.86279 24.7612 1 16.3073 1C7.8533 1 1 7.86279 1 16.3285C1 24.7941 7.8533 31.6569 16.3073 31.6569Z" fill="black"/>
<path d="M26.3761 18.7981H26.763V18.8832H26.6099V19.2153H26.5121V18.8832H26.3591L26.3761 18.7981ZM8.11791 20.3352H7.23349C7.03789 20.3352 6.9401 20.2287 6.9401 20.0116V19.6624C6.93557 19.5729 6.96436 19.4849 7.02089 19.4154C7.04618 19.3836 7.0786 19.3581 7.11553 19.3411C7.15246 19.3241 7.19287 19.316 7.23349 19.3175H7.92657C8.00031 19.3136 8.07309 19.3357 8.13217 19.3801C8.19125 19.4245 8.23286 19.4882 8.24972 19.5602L8.34752 19.8966H8.98107V19.5219C8.98464 19.4071 8.96416 19.2929 8.92095 19.1866C8.87774 19.0802 8.81276 18.9842 8.7302 18.9045C8.64938 18.8253 8.5536 18.7631 8.44846 18.7214C8.34333 18.6797 8.23095 18.6595 8.11791 18.6618H7.09317C6.97709 18.6594 6.86174 18.6808 6.75425 18.7248C6.64675 18.7687 6.54937 18.8342 6.46812 18.9173C6.38623 18.9976 6.32141 19.0938 6.27757 19.1999C6.23373 19.306 6.21177 19.4199 6.213 19.5347V20.1308C6.20884 20.2476 6.22876 20.3641 6.27152 20.4729C6.31428 20.5818 6.37896 20.6806 6.46154 20.7633C6.54412 20.846 6.64281 20.9107 6.75148 20.9536C6.86015 20.9964 6.97647 21.0163 7.09317 21.0122H7.97334C8.16893 21.0122 8.26673 21.1271 8.26673 21.3485V21.7999C8.27028 21.8872 8.2432 21.9731 8.19019 22.0426C8.16424 22.0748 8.13109 22.1004 8.09342 22.1174C8.05575 22.1344 8.01462 22.1423 7.97334 22.1405H7.27176C7.19755 22.1475 7.12335 22.1271 7.06308 22.0832C7.0028 22.0393 6.96059 21.9749 6.94435 21.9021L6.85081 21.5231H6.213V21.9489C6.21008 22.0638 6.23042 22.1782 6.27281 22.285C6.31519 22.3918 6.37874 22.489 6.45962 22.5706C6.54109 22.6516 6.6381 22.7152 6.74479 22.7576C6.85148 22.8001 6.96565 22.8204 7.08042 22.8175H8.11791C8.23358 22.8188 8.3483 22.7964 8.45505 22.7517C8.56179 22.7071 8.65831 22.6411 8.7387 22.5578C8.82035 22.4766 8.88468 22.3796 8.92781 22.2727C8.97093 22.1659 8.99194 22.0514 8.98957 21.9361V21.2165C8.98848 20.9846 8.89656 20.7623 8.73357 20.5975C8.57058 20.4327 8.34952 20.3385 8.11791 20.3352V20.3352ZM12.3444 18.9173C12.4258 18.9971 12.4903 19.0926 12.5341 19.1979C12.578 19.3032 12.6002 19.4163 12.5995 19.5304V20.382C12.6014 20.4975 12.5797 20.6122 12.5358 20.7191C12.4919 20.826 12.4268 20.9228 12.3444 21.0036C12.2616 21.0858 12.1634 21.1507 12.0554 21.1946C11.9473 21.2385 11.8317 21.2604 11.7151 21.2591H10.5756V22.8005H9.84848V18.6618H11.7151C11.8317 18.6605 11.9473 18.6825 12.0554 18.7263C12.1634 18.7702 12.2616 18.8351 12.3444 18.9173V18.9173ZM11.8682 19.6667C11.8709 19.578 11.8406 19.4915 11.7831 19.424C11.7581 19.3932 11.7262 19.3687 11.69 19.3525C11.6539 19.3362 11.6144 19.3286 11.5748 19.3303H10.5756V20.6077H11.5748C11.6144 20.6093 11.6539 20.6017 11.69 20.5855C11.7262 20.5692 11.7581 20.5447 11.7831 20.514C11.8405 20.4447 11.8707 20.357 11.8682 20.267V19.6667ZM19.1434 21.0888L19.8662 22.792H19.0924L18.4333 21.1782H17.7232V22.8005H16.9919V18.6618H18.8202C18.9356 18.66 19.0501 18.6817 19.1569 18.7256C19.2636 18.7695 19.3603 18.8347 19.441 18.9173C19.5247 18.9961 19.5916 19.091 19.6376 19.1964C19.6837 19.3018 19.7079 19.4154 19.7089 19.5304V20.2543C19.7105 20.4361 19.6571 20.6142 19.5558 20.7652C19.4502 20.9085 19.3076 21.0203 19.1434 21.0888V21.0888ZM18.9648 19.6667C18.9703 19.5791 18.943 19.4925 18.8883 19.424C18.8632 19.3932 18.8313 19.3687 18.7951 19.3525C18.759 19.3362 18.7195 19.3286 18.6799 19.3303H17.7232V20.514H18.6799C18.7194 20.5147 18.7585 20.5067 18.7946 20.4905C18.8306 20.4743 18.8626 20.4503 18.8883 20.4203C18.943 20.3517 18.9703 20.2652 18.9648 20.1776V19.6667ZM20.1596 19.3303H21.2099V22.8005H21.9455V19.3303H23.0042V18.6618H20.1596V19.3303ZM25.4364 20.3352H24.5562C24.3606 20.3352 24.2628 20.2287 24.2628 20.0116V19.6624C24.2583 19.5729 24.2871 19.4849 24.3436 19.4154C24.3693 19.3841 24.4018 19.359 24.4387 19.342C24.4755 19.325 24.5157 19.3167 24.5562 19.3175H25.2365C25.3105 19.3127 25.3837 19.3345 25.4429 19.379C25.5022 19.4235 25.5436 19.4878 25.5597 19.5602L25.6575 19.8966H26.291V19.5219C26.2928 19.4074 26.2715 19.2937 26.2284 19.1876C26.1853 19.0815 26.1213 18.9852 26.0402 18.9045C25.9588 18.8248 25.8624 18.7622 25.7565 18.7206C25.6506 18.6789 25.5374 18.6589 25.4236 18.6618H24.4031C24.1734 18.6651 23.954 18.7583 23.792 18.9214C23.6299 19.0845 23.5379 19.3046 23.5357 19.5347V20.1308C23.5339 20.2473 23.5559 20.363 23.6006 20.4707C23.6452 20.5783 23.7114 20.6757 23.7951 20.7567C23.8759 20.8392 23.9725 20.9044 24.0793 20.9484C24.186 20.9923 24.3005 21.014 24.4159 21.0122H25.2961C25.4959 21.0122 25.5895 21.1271 25.5895 21.3485V21.7999C25.593 21.8872 25.5659 21.9731 25.5129 22.0426C25.487 22.0748 25.4538 22.1004 25.4161 22.1174C25.3785 22.1344 25.3373 22.1423 25.2961 22.1405H24.5945C24.5203 22.1475 24.4461 22.1271 24.3858 22.0832C24.3255 22.0393 24.2833 21.9749 24.2671 21.9021L24.1735 21.5231H23.5357V21.9489C23.5334 22.0641 23.5544 22.1786 23.5975 22.2855C23.6406 22.3924 23.7049 22.4893 23.7866 22.5706C23.9488 22.7227 24.164 22.8052 24.3861 22.8005H25.4194C25.5358 22.8023 25.6513 22.7802 25.7588 22.7356C25.8663 22.6909 25.9635 22.6246 26.0444 22.5408C26.1268 22.4599 26.192 22.3631 26.2358 22.2562C26.2797 22.1493 26.3014 22.0346 26.2995 21.9191V21.2165C26.2941 20.9845 26.1997 20.7634 26.0358 20.5993C25.8719 20.4352 25.6511 20.3406 25.4194 20.3352H25.4364ZM27.2392 18.7981L27.0819 19.0365L26.9373 18.7981H26.8736V19.1983H26.9373V18.9513C26.9373 18.9513 26.9373 18.9215 26.9373 18.9045C26.9373 18.8875 26.9373 18.9343 26.9629 18.9471L27.0947 19.1472L27.2222 18.9513C27.2222 18.9513 27.2222 18.9215 27.2222 18.9045V19.1983H27.2945V18.7981H27.2392ZM15.8438 18.913C15.9265 18.993 15.9921 19.089 16.0367 19.1951C16.0813 19.3012 16.1039 19.4153 16.1032 19.5304V21.9106C16.1038 22.0272 16.0813 22.1429 16.0371 22.2508C15.9929 22.3588 15.9278 22.4569 15.8457 22.5396C15.7635 22.6223 15.6658 22.6879 15.5582 22.7327C15.4506 22.7774 15.3353 22.8005 15.2188 22.8005H14.2323C14.1159 22.8023 14.0004 22.7802 13.8929 22.7356C13.7854 22.6909 13.6881 22.6246 13.6073 22.5408C13.5199 22.4608 13.4503 22.3634 13.4027 22.2549C13.3551 22.1464 13.3306 22.0291 13.3309 21.9106V19.5304C13.3386 19.3011 13.4353 19.0839 13.6005 18.9249C13.7656 18.7659 13.9862 18.6776 14.2153 18.6788H15.2018C15.3191 18.6713 15.4368 18.6882 15.5473 18.7285C15.6578 18.7688 15.7588 18.8316 15.8438 18.913V18.913ZM15.3719 19.6667C15.3763 19.5777 15.3457 19.4906 15.2868 19.424C15.2617 19.3932 15.2299 19.3687 15.1937 19.3525C15.1575 19.3362 15.1181 19.3286 15.0785 19.3303H14.3769C14.336 19.3286 14.2953 19.3361 14.2578 19.3523C14.2202 19.3686 14.1868 19.393 14.16 19.424C14.107 19.4934 14.0799 19.5793 14.0835 19.6667V21.7956C14.0806 21.8816 14.1076 21.9659 14.16 22.0341C14.1858 22.0668 14.2188 22.0931 14.2564 22.1108C14.294 22.1285 14.3353 22.1372 14.3769 22.1363H15.0785C15.1188 22.1373 15.1589 22.1285 15.1951 22.1107C15.2314 22.0929 15.2629 22.0666 15.2868 22.0341C15.3451 21.9687 15.3756 21.8832 15.3719 21.7956V19.6667ZM18.4546 8.09367H10.5883L9.38501 10.0097H17.247L18.4546 8.09367ZM21.431 13.8376H20.2574L19.0456 15.7579H22.6471L23.8546 17.674H26.1507L20.0661 8.02555L15.172 15.7622H9.82297L11.0518 13.8418H14.3726L15.5845 11.9258H8.17318L6.95285 13.8418H8.7302L6.30655 17.674H16.3073L20.0661 11.6448L21.431 13.8376Z" fill="white"/>
<path d="M37.4526 6.80778H51.6288L50.9102 10.972H41.981L41.3687 14.4678H48.5631L47.8445 18.6277H40.6161L39.3405 25.8321H34.0935L37.4526 6.80778Z" fill="black"/>
<path d="M53.4657 6.80779H58.7169L55.3578 25.8321H50.1066L53.4657 6.80779Z" fill="black"/>
<path d="M60.5538 6.80779H74.73L74.0114 10.972H65.0822L64.4699 14.4678H71.6643L70.9457 18.6277H63.7173L62.4417 25.8321H57.1947L60.5538 6.80779Z" fill="black"/>
<path d="M79.1522 6.78224H85.0413L88.107 25.8321H82.8812L82.456 22.4982H75.8739L74.2752 25.8321H69.211L79.1522 6.78224ZM81.95 18.5213L81.0699 11.6661H80.9636L77.7661 18.5213H81.95Z" fill="black"/>
<path d="M91.5042 22.9155L97.8822 16.8352C99.2854 15.4811 101.526 13.4288 101.526 11.6448C101.526 10.6442 100.774 10.1588 99.8551 10.1588C98.1543 10.1588 97.7291 11.5937 97.5335 12.9434H92.7458C92.7713 12.8625 92.9073 11.9684 92.9329 11.8875C93.66 7.99574 96.9808 6.29684 100.812 6.29684C103.835 6.29684 106.616 7.51034 106.616 10.9167C106.616 14.6977 102.755 17.6186 100.191 19.9136L98.3712 21.5359L98.3457 21.6721H105.009L104.281 25.8321H90.9897L91.5042 22.9155Z" fill="black"/>
<path d="M106.374 21.8084C106.376 21.2075 106.447 20.6089 106.586 20.0243H111.336C111.286 20.2919 111.25 20.562 111.229 20.8333C111.229 21.9404 112.445 22.2129 113.334 22.2129C113.651 22.2046 113.963 22.1339 114.252 22.0049C114.541 21.8759 114.802 21.691 115.02 21.4609C115.238 21.2307 115.409 20.9598 115.522 20.6637C115.636 20.3675 115.69 20.0519 115.681 19.7348C115.681 18.4574 114.406 17.9252 113.279 17.9252H112.365L112.956 14.4933H114.036C115.464 14.5742 116.842 13.7609 116.842 11.9386C116.842 10.9124 116.166 10.3717 115.196 10.3717C113.657 10.3717 112.985 11.0487 112.739 12.4538H108.1L108.206 11.8321C108.852 8 112.229 6.23723 115.898 6.23723C118.73 6.23723 121.783 7.5146 121.783 10.8315C121.783 13.2074 120.541 15.2342 118.22 15.941L118.19 16.0773C118.985 16.2519 119.694 16.6978 120.197 17.3386C120.7 17.9795 120.964 18.7754 120.945 19.59C120.945 24.0779 116.196 26.2366 112.496 26.1557C109.609 26.1217 106.374 25.2701 106.374 21.8084Z" fill="black"/>
</g>
<defs>
<clipPath id="clip0_457_54223">
<rect width="139.334" height="30.6569" fill="white" transform="translate(1 1)"/>
</clipPath>
</defs>
</svg>
